<?xml version="1.0" encoding="utf-8"?>
<!-- Generator: Adobe Illustrator 17.1.0, SVG Export Plug-In . SVG Version: 6.00 Build 0)  -->
<!DOCTYPE svg PUBLIC "-//W3C//DTD SVG 1.1//EN" "http://www.w3.org/Graphics/SVG/1.1/DTD/svg11.dtd">
<svg version="1.1" id="Layer_1" xmlns="http://www.w3.org/2000/svg" xmlns:xlink="http://www.w3.org/1999/xlink" x="0px" y="0px"
	 enable-background="new 0 0 30 30" xml:space="preserve" width="30px" height="30px">
<path fill="#000000" d="M15,5.1c-0.7,0-1.3,0.1-2,0.2c-0.2,0-0.4,0.2-0.6,0.4l-0.3,1.3c-0.9,0.3-1.7,0.8-2.4,1.4L8.3,8.2
	C8,8.1,7.8,8.2,7.7,8.5C7.2,9,6.8,9.6,6.5,10.1c-0.3,0.6-0.7,1.2-0.9,1.8c-0.1,0.2,0,0.6,0.1,0.7l1,1c-0.1,0.9-0.1,1.9,0,2.8l-1,1
	c-0.2,0.2-0.2,0.4-0.1,0.7c0.2,0.7,0.4,1.2,0.9,1.9c0.3,0.6,0.8,1.1,1.2,1.7c0.1,0.2,0.3,0.3,0.7,0.2l1.3-0.3
	c0.8,0.7,1.6,1.1,2.4,1.4l0.3,1.3c0.1,0.2,0.2,0.4,0.6,0.4c0.7,0.1,1.3,0.2,2,0.2s1.3-0.1,2-0.2c0.2,0,0.4-0.2,0.6-0.4l0.3-1.3
	c0.9-0.3,1.7-0.8,2.4-1.4l1.3,0.3c0.2,0.1,0.6,0,0.7-0.2c0.4-0.6,0.9-1.1,1.2-1.7s0.7-1.2,0.9-1.9c0.1-0.2,0-0.6-0.1-0.7l-1-1
	c0.1-0.9,0.1-1.9,0-2.8l1-1c0.2-0.2,0.2-0.4,0.1-0.7c-0.2-0.6-0.6-1.2-0.9-1.8c-0.3-0.6-0.8-1.1-1.2-1.7c-0.2-0.2-0.4-0.2-0.7-0.2
	l-1.3,0.3c-0.8-0.7-1.6-1.1-2.4-1.4l-0.3-1.3c-0.1-0.2-0.2-0.4-0.6-0.4C16.3,5.2,15.7,5.1,15,5.1L15,5.1z M15,6.5
	c0.4,0,0.9,0.1,1.3,0.1l0.3,1.2c0.1,0.2,0.2,0.4,0.4,0.4c1,0.3,1.9,0.8,2.7,1.6c0.2,0.1,0.4,0.2,0.7,0.1l1.2-0.3
	c0.3,0.3,0.6,0.7,0.8,1.1c0.2,0.4,0.4,0.8,0.6,1.2l-0.9,1c-0.1,0.1-0.2,0.4-0.2,0.7c0.2,1,0.2,2,0,3c0,0.2,0,0.4,0.2,0.7l0.9,0.9
	c-0.1,0.4-0.3,0.9-0.6,1.2c-0.2,0.4-0.6,0.8-0.8,1.1l-1.2-0.3c-0.2-0.1-0.4,0-0.7,0.1c-0.8,0.7-1.7,1.2-2.7,1.6
	c-0.2,0.1-0.3,0.2-0.4,0.4l-0.3,1.2c-0.4,0.1-0.9,0.1-1.3,0.1s-0.9-0.1-1.3-0.1l-0.3-1.2c-0.1-0.2-0.2-0.4-0.4-0.4
	c-1-0.3-1.9-0.8-2.7-1.6C10,20.1,9.8,20,9.6,20.1l-1.2,0.3c-0.3-0.3-0.6-0.7-0.8-1.1C7.3,18.9,7.2,18.4,7,18l0.9-0.9
	C8,17,8.1,16.7,8.1,16.4c-0.2-1-0.2-2,0-3c0-0.2,0-0.4-0.2-0.7L7,12c0.2-0.4,0.3-0.9,0.6-1.2c0.2-0.4,0.6-0.8,0.8-1.1L9.6,10
	c0.2,0.1,0.4,0,0.7-0.1c0.8-0.7,1.7-1.2,2.7-1.6c0.2-0.1,0.3-0.2,0.4-0.4l0.3-1.2C14.1,6.6,14.6,6.5,15,6.5L15,6.5z M15,10.2
	c-1.2,0-2.4,0.4-3.4,1.4c-1.9,1.9-1.9,4.9,0,6.8c1.9,1.9,4.9,1.9,6.8,0c1.9-1.9,1.9-4.9,0-6.8C17.4,10.7,16.2,10.2,15,10.2L15,10.2z
	 M15,11.6c0.9,0,1.8,0.3,2.4,1c1.3,1.3,1.3,3.5,0,4.9c-1.3,1.3-3.5,1.3-4.9,0c-1.3-1.3-1.3-3.5,0-4.9C13.2,11.9,14.1,11.6,15,11.6
	L15,11.6z"/>
</svg>
