<?xml version="1.0" encoding="utf-8"?>
<!-- Generator: Adobe Illustrator 17.1.0, SVG Export Plug-In . SVG Version: 6.00 Build 0)  -->
<!DOCTYPE svg PUBLIC "-//W3C//DTD SVG 1.1//EN" "http://www.w3.org/Graphics/SVG/1.1/DTD/svg11.dtd">
<svg version="1.1" id="Layer_1" xmlns="http://www.w3.org/2000/svg" xmlns:xlink="http://www.w3.org/1999/xlink" x="0px" y="0px"
	 viewBox="0 0 512 512" enable-background="new 0 0 512 512" xml:space="preserve">
<circle cx="256" cy="256" r="256"/>
<path fill="#FFFFFF" d="M256,464c-114.9,0-208-93.1-208-208S141.1,48,256,48c57.4,0,109.4,23.3,147.1,60.9l22.6-22.6
	C382.3,42.9,322.3,16,256,16C123.5,16,16,123.5,16,256s107.5,240,240,240c66.3,0,126.3-26.9,169.7-70.3l-22.6-22.6
	C365.4,440.7,313.4,464,256,464z"/>
<path fill="#FFFFFF" d="M120.2,391.8l22.6-22.6c-29-29-46.9-69-46.9-113.1c0-88.4,71.6-160,160-160s160,71.6,160,160
	c0,44.2-17.9,84.2-46.9,113.1l22.6,22.6C426.5,357,448,309,448,256c0-106-86-192-192-192S64,150,64,256C64,309,85.5,357,120.2,391.8
	z"/>
<path fill="#FFFFFF" d="M256,112c-39.8,0-75.8,16.1-101.8,42.2l22.6,22.6c20.3-20.3,48.3-32.8,79.2-32.8c61.9,0,112,50.1,112,112
	s-50.1,112-112,112c-30.9,0-58.9-12.5-79.2-32.8l-22.6,22.6C180.2,383.9,216.2,400,256,400c79.5,0,144-64.5,144-144
	S335.5,112,256,112z"/>
<path fill="#FFFFFF" d="M301.3,210.7c11.6,11.6,18.7,27.6,18.7,45.3c0,35.3-28.7,64-64,64s-64-28.7-64-64c0-17.7,7.2-33.7,18.7-45.3
	l-22.6-22.6C170.7,205.5,160,229.5,160,256c0,53,43,96,96,96s96-43,96-96c0-26.5-10.7-50.5-28.1-67.9L301.3,210.7z"/>
</svg>
